<svg width="158" height="68" viewBox="0 0 158 68" fill="none" xmlns="http://www.w3.org/2000/svg">
<g clip-path="url(#clip0)">
<path fill-rule="evenodd" clip-rule="evenodd" d="M100.556 3.37671L82.6121 44.4795C82.3791 45.7603 82.4956 46.4589 82.6121 47.1575L91.351 45.0617C92.5162 37.726 101.605 32.7192 109.994 30.7397L112.558 37.3767L120.364 36.2123L117.568 29.8082C123.627 29.226 132.249 29.226 143.901 38.4247C155.67 47.6233 158.466 68.3493 157.883 66.137C157.301 63.9247 158.233 48.5548 147.979 37.1438C138.891 27.7123 130.035 23.8699 114.888 24.4521L105.566 1.63014L100.556 3.37671ZM39.733 3.37671L31.9263 42.8493L38.8009 46.226L44.7434 19.2123L56.0457 47.1575L60.2404 43.6644L68.0472 19.911L73.5236 47.1575L80.9808 43.548L73.2906 0L65.9499 3.49315L56.8614 29.4589L46.3746 0.931507L39.733 3.37671ZM0 9.31507L3.26254 1.63014C13.3997 1.63014 23.3038 1.63014 33.441 1.63014L30.1785 9.31507H20.6239V43.8973H12.2345V9.31507H0ZM108.246 25.3836C108.479 24.9178 97.41 28.9932 97.41 30.0411L103.586 15.3699L108.246 25.3836Z" fill="#289CD8"/>
<path fill-rule="evenodd" clip-rule="evenodd" d="M118.622 35.0469C127.594 35.0469 134.818 42.3825 134.818 51.5811C134.818 60.6633 127.594 68.1154 118.622 68.1154C109.65 68.1154 102.426 60.7797 102.426 51.5811C102.542 42.4989 109.766 35.0469 118.622 35.0469Z" fill="#9C9EA1"/>
<path fill-rule="evenodd" clip-rule="evenodd" d="M102.419 50.6548C104.517 50.3055 106.381 48.4425 103.351 47.8603C102.769 47.7438 103.235 46.6959 103.584 46.6959C104.983 46.5795 109.294 49.4904 109.294 51.3534C109.294 57.6411 111.508 56.011 113.605 52.9836C116.052 49.6068 117.334 53.6822 118.732 56.4767C119.081 57.1753 121.994 58.1068 121.994 56.9425C121.994 55.6616 121.645 54.3808 120.713 53.4493C120.713 53.4493 124.441 52.5178 125.024 51.3534C126.073 49.1411 124.092 42.0384 126.772 47.6274C127.354 48.7918 128.053 48.5589 128.286 47.8603C128.403 47.3945 128.17 46.5795 128.286 46.3466C128.869 42.8534 132.248 46.5795 128.636 41.2233C126.772 38.5452 129.918 39.3603 130.384 40.2918C131.083 41.5726 128.869 37.7301 123.626 35.8671C116.635 33.4219 108.362 36.9151 104.866 43.2027C102.186 48.0931 102.419 49.7233 102.419 50.6548ZM116.518 58.689C116.868 58.8055 117.101 59.1548 117.45 59.5041C117.683 59.8534 118.266 60.4356 118.615 60.6685C119.081 61.1342 119.548 61.9493 119.548 62.6479C119.548 62.7644 119.664 63.2301 119.431 63.2301C119.314 63.2301 119.198 63.1137 119.198 63.1137C119.081 63.1137 118.965 63.1137 118.965 62.9973C118.848 62.8808 118.732 62.7644 118.732 62.5315L118.615 62.0657C118.499 61.9493 118.382 61.6 118.382 61.3671C118.266 60.9014 117.8 60.3192 117.683 59.9699C117.334 59.737 116.518 58.9219 116.518 58.689ZM117.8 56.1274C117.8 56.5931 117.8 57.0589 117.8 57.5247C117.8 57.6411 117.916 58.1068 117.916 58.1068L118.033 58.3397C118.149 58.4562 118.266 58.689 118.266 58.8055C118.382 58.9219 118.732 60.2027 119.081 60.2027C119.314 60.2027 119.198 59.3877 119.198 59.2712C119.198 58.9219 119.081 58.5726 118.965 58.3397C118.965 58.2233 118.848 57.874 118.848 57.874C118.732 57.7575 118.732 57.4082 118.615 57.2918C118.615 57.0589 118.149 56.1274 117.8 56.1274ZM120.946 60.6685C121.179 60.552 121.528 60.5521 121.878 60.5521L122.46 60.4356C122.577 60.3192 122.694 60.2027 122.927 60.2027C123.043 60.0863 123.509 59.9699 123.509 59.9699C123.509 59.9699 124.558 59.5041 124.674 59.5041C124.907 59.5041 125.373 59.6205 125.373 59.9699C125.373 60.2027 125.373 60.7849 125.257 60.9014C125.14 61.0178 125.14 61.2507 125.14 61.2507L124.907 61.7164C124.907 61.8329 124.674 61.9493 124.674 61.9493C124.441 62.0658 124.208 62.4151 124.092 62.4151C123.859 62.5315 123.509 62.6479 123.276 62.6479C122.81 62.6479 122.344 62.7644 121.878 62.7644C121.295 62.7644 120.596 62.0658 120.48 61.6C120.48 61.4836 120.363 61.1342 120.48 61.0178C120.596 61.0178 121.062 60.9014 120.946 60.6685ZM122.46 64.2781C122.227 64.0452 121.994 64.0452 121.878 63.8123L121.761 63.6959C121.645 63.6959 121.528 63.6959 121.528 63.5794C121.412 63.463 121.412 63.463 121.295 63.463C121.062 63.463 121.412 63.3466 120.946 63.3466C120.829 63.3466 120.713 63.3466 120.713 63.3466H120.596L120.48 63.463L120.363 63.5794V63.6959L120.48 63.8123C120.48 63.8123 120.596 63.9288 120.713 63.9288L120.829 64.0452L120.946 64.1616H121.062L121.179 64.2781H121.295H121.412L121.528 64.3945L121.645 64.511V64.6274H121.761L121.878 64.7438V64.8603H121.994C122.111 64.9767 122.111 65.0931 122.227 65.0931H122.46L122.577 64.9767L122.694 64.8603V64.7438V64.6274V64.511C122.227 64.511 122.227 64.3945 122.46 64.2781ZM130.966 45.7644C130.85 46.5795 130.151 47.3945 129.568 47.6274C129.452 47.7438 129.219 48.2096 129.219 48.2096C129.219 48.5589 129.335 48.6753 129.568 48.6753C129.685 48.6753 129.452 48.7918 129.801 48.7918C130.267 48.7918 130.733 48.7918 131.083 48.7918C131.549 48.7918 131.549 47.3945 131.432 47.0452C131.432 46.9288 131.316 46.5795 131.316 46.463C131.316 46.3466 131.199 45.8808 131.199 45.8808C131.199 45.6479 131.083 45.6479 130.966 45.7644Z" fill="#F5F5C3"/>
<path d="M23.5369 51.5813C25.0516 51.5813 26.4499 52.1635 27.4985 53.3279C28.5472 54.4922 29.1298 56.0059 29.1298 57.6361V62.7594C29.1298 62.9922 29.0133 63.2251 28.7803 63.458C28.5472 63.6909 28.3142 63.8073 28.0811 63.8073C27.8481 63.8073 27.6151 63.6909 27.382 63.458C27.149 63.2251 27.0325 62.9922 27.0325 62.7594V57.6361C27.0325 56.4717 26.6829 55.5402 25.9838 54.7251C25.2847 53.9101 24.469 53.5607 23.4204 53.5607C22.3717 53.5607 21.5561 53.9101 20.857 54.7251C20.1578 55.5402 19.8083 56.4717 19.8083 57.6361V62.7594C19.8083 62.9922 19.6918 63.2251 19.4587 63.458C19.2257 63.6909 18.9926 63.8073 18.7596 63.8073C18.5266 63.8073 18.177 63.6909 18.0605 63.458C17.8275 63.2251 17.7109 62.9922 17.7109 62.7594V52.5128C17.7109 52.2799 17.8275 52.047 18.0605 51.8142C18.2935 51.5813 18.5266 51.4648 18.7596 51.4648C18.9926 51.4648 19.2257 51.5813 19.4587 51.8142C19.6918 52.047 19.8083 52.2799 19.8083 52.5128V52.8621C20.9735 52.047 22.1387 51.5813 23.5369 51.5813Z" fill="#CA202D"/>
<path d="M37.9861 51.5813C39.5009 51.5813 40.8991 52.1635 41.9478 53.3279C42.9964 54.4922 43.579 56.0059 43.579 57.6361V62.7594C43.579 62.9922 43.4625 63.2251 43.2295 63.458C42.9964 63.6909 42.7634 63.8073 42.5304 63.8073C42.2973 63.8073 42.0643 63.6909 41.8312 63.458C41.5982 63.2251 41.4817 62.9922 41.4817 62.7594V57.6361C41.4817 56.4717 41.1321 55.5402 40.433 54.7251C39.7339 53.9101 38.9183 53.5607 37.8696 53.5607C36.8209 53.5607 36.0053 53.9101 35.3062 54.7251C34.6071 55.5402 34.2575 56.4717 34.2575 57.6361V62.7594C34.2575 62.9922 34.141 63.2251 33.9079 63.458C33.6749 63.6909 33.4419 63.8073 33.2088 63.8073C32.9758 63.8073 32.6262 63.6909 32.5097 63.458C32.2767 63.2251 32.1602 62.9922 32.1602 62.7594V52.5128C32.1602 52.2799 32.2767 52.047 32.5097 51.8142C32.7428 51.5813 32.9758 51.4648 33.2088 51.4648C33.4419 51.4648 33.6749 51.5813 33.9079 51.8142C34.141 52.047 34.2575 52.2799 34.2575 52.5128V52.8621C35.4227 52.047 36.7044 51.5813 37.9861 51.5813Z" fill="#CA202D"/>
<path d="M52.2035 51.582C53.8348 51.582 55.233 52.1642 56.5147 53.3286C57.6799 54.493 58.2625 56.0067 58.2625 57.6368C58.2625 59.267 57.6799 60.7807 56.5147 61.945C55.3496 63.1094 53.9513 63.6916 52.2035 63.6916C50.5723 63.6916 49.174 63.1094 47.8923 61.945C46.7271 60.7807 46.1445 59.267 46.1445 57.6368C46.1445 55.8903 46.7271 54.493 47.8923 53.3286C49.174 52.1642 50.5723 51.582 52.2035 51.582ZM52.2035 61.8286C53.2522 61.8286 54.3009 61.4793 55 60.6642C55.8156 59.8492 56.1652 58.9176 56.1652 57.7533C56.1652 56.5889 55.8156 55.6574 55 54.8423C54.1844 54.0272 53.2522 53.6779 52.2035 53.6779C51.1549 53.6779 50.1062 54.0272 49.4071 54.8423C48.5914 55.6574 48.2419 56.5889 48.2419 57.7533C48.2419 58.9176 48.5914 59.8492 49.4071 60.6642C50.2227 61.3629 51.1549 61.8286 52.2035 61.8286Z" fill="#CA202D"/>
<path d="M70.6111 52.2807C70.6111 52.3971 70.7276 52.5135 70.7276 52.63C70.7276 52.7464 70.7276 52.8629 70.6111 52.9793L66.2999 63.2259C66.1833 63.5752 65.8338 63.8081 65.3677 63.8081C64.9016 63.8081 64.5521 63.5752 64.4355 63.2259L60.1243 52.9793C60.1243 52.8629 60.0078 52.7464 60.0078 52.63C60.0078 52.5135 60.0078 52.3971 60.1243 52.2807C60.2408 52.0478 60.4739 51.8149 60.7069 51.6985C60.8234 51.6985 60.94 51.582 61.0565 51.582C61.173 51.582 61.2895 51.582 61.406 51.6985C61.6391 51.8149 61.8721 51.9313 61.9886 52.2807L65.3677 60.3149L68.7468 52.2807C68.8633 52.0478 69.0963 51.8149 69.3293 51.6985C69.4459 51.6985 69.5624 51.582 69.6789 51.582C69.7954 51.582 69.9119 51.582 70.0285 51.6985C70.2615 51.8149 70.4945 51.9313 70.6111 52.2807Z" fill="#CA202D"/>
<path d="M84.0107 51.582C84.2438 51.582 84.4768 51.6985 84.7098 51.9313C84.9429 52.1642 85.0594 52.3971 85.0594 52.63V62.8766C85.0594 63.1094 84.9429 63.3423 84.7098 63.5752C84.4768 63.8081 84.2438 63.9245 84.0107 63.9245C83.7777 63.9245 83.5446 63.8081 83.3116 63.5752C83.0786 63.3423 82.962 63.1094 82.962 62.8766V62.2944C81.7969 63.3423 80.5152 63.8081 79.0004 63.8081C77.3691 63.8081 75.9709 63.2259 74.6892 62.0615C73.524 60.8971 72.9414 59.3834 72.9414 57.7533C72.9414 56.0067 73.524 54.6094 74.6892 53.445C75.8544 52.2807 77.2526 51.6985 79.0004 51.6985C80.5152 51.6985 81.7969 52.1642 82.962 53.2122V52.7464C82.962 52.5135 83.0786 52.2807 83.3116 52.0478C83.4281 51.6985 83.6612 51.582 84.0107 51.582ZM79.0004 61.8286C80.0491 61.8286 81.0977 61.4793 81.7969 60.6642C82.6125 59.8492 82.962 58.9177 82.962 57.7533C82.962 56.5889 82.6125 55.6574 81.7969 54.8423C80.9812 54.0272 80.0491 53.6779 79.0004 53.6779C77.9517 53.6779 76.9031 54.0272 76.2039 54.8423C75.3883 55.6574 75.0388 56.5889 75.0388 57.7533C75.0388 58.9177 75.3883 59.8492 76.2039 60.6642C76.9031 61.3629 77.8352 61.8286 79.0004 61.8286Z" fill="#CA202D"/>
<path d="M93.4515 51.5824C93.6845 51.5824 93.9176 51.6988 94.1506 51.9317C94.3837 52.1646 94.5002 52.3975 94.5002 52.6304C94.5002 52.8632 94.3837 53.0961 94.1506 53.329C93.9176 53.5619 93.6845 53.6783 93.4515 53.6783H91.8202V62.8769C91.8202 63.1098 91.7037 63.3427 91.4707 63.5756C91.2377 63.8085 91.0046 63.9249 90.7716 63.9249C90.5385 63.9249 90.3055 63.8085 90.0725 63.5756C89.8394 63.3427 89.7229 63.1098 89.7229 62.8769V53.6783H88.0916C87.8586 53.6783 87.509 53.5619 87.3925 53.329C87.1595 53.0961 87.043 52.8632 87.043 52.6304C87.043 52.3975 87.1595 52.1646 87.3925 51.9317C87.6256 51.6988 87.8586 51.5824 88.0916 51.5824H89.7229V48.4386C89.7229 48.2057 89.8394 47.9728 90.0725 47.7399C90.3055 47.5071 90.5385 47.3906 90.7716 47.3906C91.0046 47.3906 91.2377 47.5071 91.4707 47.7399C91.7037 47.9728 91.8202 48.2057 91.8202 48.4386V51.5824H93.4515Z" fill="#CA202D"/>
<path d="M98.1098 47.5078C98.3429 47.5078 98.5759 47.5078 98.6924 47.6243C98.8089 47.7407 99.042 47.8571 99.1585 48.09C99.275 48.3229 99.3915 48.5558 99.3915 48.7886C99.3915 49.0215 99.3915 49.2544 99.275 49.4873C99.1585 49.7201 99.042 49.8366 98.8089 49.953C98.5759 50.0695 98.3429 50.0695 98.1098 50.0695C97.8768 50.0695 97.6438 50.0695 97.4107 49.953C97.1777 49.8366 97.0612 49.7201 96.9446 49.4873C96.8281 49.2544 96.8281 49.0215 96.8281 48.7886C96.8281 48.5558 96.8281 48.3229 96.9446 48.09C97.0612 47.8571 97.1777 47.7407 97.4107 47.6243C97.6438 47.5078 97.8768 47.5078 98.1098 47.5078ZM98.1098 51.5832C98.3429 51.5832 98.5759 51.6996 98.8089 51.9325C99.042 52.1653 99.1585 52.3982 99.1585 52.6311V62.8777C99.1585 63.1105 99.042 63.3434 98.8089 63.5763C98.5759 63.8092 98.3429 63.9256 98.1098 63.9256C97.8768 63.9256 97.6438 63.8092 97.4107 63.5763C97.1777 63.3434 97.0612 63.1105 97.0612 62.8777V52.6311C97.0612 52.3982 97.1777 52.1653 97.4107 51.9325C97.6438 51.6996 97.8768 51.5832 98.1098 51.5832Z" fill="#CA202D"/>
<path d="M13.1684 47.5078C13.4015 47.5078 13.6345 47.5078 13.751 47.6243C13.9841 47.7407 14.1006 47.8571 14.2171 48.09C14.3336 48.3229 14.4501 48.5558 14.4501 48.7886C14.4501 49.0215 14.4501 49.2544 14.3336 49.4873C14.2171 49.7201 14.1006 49.8366 13.8675 49.953C13.518 50.0695 13.4015 50.0695 13.1684 50.0695C12.9354 50.0695 12.7024 50.0695 12.4693 49.953C12.2363 49.8366 12.1198 49.7201 12.0032 49.4873C11.8867 49.2544 11.8867 49.0215 11.8867 48.7886C11.8867 48.5558 11.8867 48.3229 12.0032 48.09C12.1198 47.8571 12.2363 47.7407 12.4693 47.6243C12.7024 47.5078 12.9354 47.5078 13.1684 47.5078ZM13.1684 51.5832C13.4015 51.5832 13.6345 51.6996 13.8675 51.9325C14.1006 52.1653 14.2171 52.3982 14.2171 52.6311V62.8777C14.2171 63.1105 14.1006 63.3434 13.8675 63.5763C13.6345 63.8092 13.4015 63.9256 13.1684 63.9256C12.9354 63.9256 12.7024 63.8092 12.4693 63.5763C12.2363 63.3434 12.1198 63.1105 12.1198 62.8777V52.6311C12.1198 52.3982 12.2363 52.1653 12.4693 51.9325C12.5858 51.6996 12.8189 51.5832 13.1684 51.5832Z" fill="#CA202D"/>
<path d="M143.088 51.5813C144.602 51.5813 146.001 52.1635 147.049 53.3279C148.098 54.4922 148.681 56.0059 148.681 57.6361V62.7594C148.681 62.9922 148.564 63.2251 148.331 63.458C148.098 63.6909 147.865 63.8073 147.632 63.8073C147.399 63.8073 147.166 63.6909 146.933 63.458C146.7 63.2251 146.583 62.9922 146.583 62.7594V57.6361C146.583 56.4717 146.234 55.5402 145.535 54.7251C144.835 53.9101 144.02 53.5607 142.971 53.5607C141.922 53.5607 141.107 53.9101 140.408 54.7251C139.709 55.5402 139.359 56.4717 139.359 57.6361V62.7594C139.359 62.9922 139.243 63.2251 139.01 63.458C138.776 63.6909 138.543 63.8073 138.31 63.8073C138.077 63.8073 137.728 63.6909 137.611 63.458C137.378 63.2251 137.262 62.9922 137.262 62.7594V52.5128C137.262 52.2799 137.378 52.047 137.611 51.8142C137.844 51.5813 138.077 51.4648 138.31 51.4648C138.543 51.4648 138.776 51.5813 139.01 51.8142C139.243 52.047 139.359 52.2799 139.359 52.5128V52.8621C140.524 52.047 141.689 51.5813 143.088 51.5813Z" fill="#CA202D"/>
</g>
<defs>
<clipPath id="clip0">
<rect width="158" height="68" fill="white"/>
</clipPath>
</defs>
</svg>
