<svg width="16" height="16" viewBox="0 0 16 16" fill="none" xmlns="http://www.w3.org/2000/svg">
<g opacity="0.3">
<path d="M13.8633 13.2036L10.9347 10.275C11.6627 9.39966 12.1012 8.27558 12.1012 7.05078C12.1012 4.26577 9.83552 2 7.05064 2C4.2657 2 2 4.26577 2 7.05078C2 9.83561 4.2657 12.1012 7.05064 12.1012C8.27537 12.1012 9.39951 11.6627 10.2749 10.9347L13.2035 13.8633C13.2946 13.9545 13.414 14 13.5334 14C13.6528 14 13.7722 13.9545 13.8634 13.8633C14.0456 13.6811 14.0456 13.3858 13.8633 13.2036ZM2.9331 7.05078C2.9331 4.78028 4.78021 2.93311 7.05064 2.93311C9.32101 2.93311 11.1681 4.78028 11.1681 7.05078C11.1681 9.32109 9.32101 11.1681 7.05064 11.1681C4.78021 11.1681 2.9331 9.32109 2.9331 7.05078Z" fill="#333333"/>
</g>
</svg>
